# xmcd
#
# Track frame offsets: 
#        150
#        26950
#        52457
#        80732
#        98575
#        122880
#        141657
#        161575
#        177090
#        199537
#        221345
#        240547
#
# Disc length: 3527 seconds
#
# Revision: 6
# Processed by: cddbd v1.5.2PL0 Copyright (c) Steve Scherf et al.
# Submitted via: ExactAudioCopy v0.95a5
#
DISCID=b00dc50c
DTITLE=Grace Jones - Bulletproof Heart
DYEAR=1989
DGENRE=Pop
TTITLE0=Driving Satisfaction
TTITLE1=Kicked Around
TTITLE2=Love On Top Of Love
TTITLE3=Paper Plan
TTITLE4=Crack Attack
TTITLE5=Bulletproof Heart
TTITLE6=On My Way
TTITLE7=Dream
TTITLE8=Seduction Surrender
TTITLE9=Someone To Love
TTITLE10=Don't Cry Freedom
TTITLE11=Amado Mio
EXTD=
EXTT0=
EXTT1=
EXTT2=
EXTT3=
EXTT4=
EXTT5=
EXTT6=
EXTT7=
EXTT8=
EXTT9=
EXTT10=
EXTT11=
PLAYORDER=
